<svg xmlns="http://www.w3.org/2000/svg" viewBox="0 0 519.51 414.64"><path d="M516.41 203.62c-21.89-2.53-43.35-4.86-63.47-6.33 8.8-23.32 5.46-56.85-8.5-84.44-.12-.25-2.04-3.95-2.04-3.95-16.94-31.33-41.86-57.89-72.08-76.98C337.27 11.04 299.03 0 259.75 0 165.28 0 82.76 63.79 59.06 155.11c-.48 1.88.64 3.79 2.51 4.27.3.08.59.11.88.11 1.56 0 2.98-1.04 3.39-2.62C88.73 68.63 168.47 7 259.75 7c37.96 0 74.9 10.67 106.83 30.84 31.02 19.59 56.09 47.1 72.47 79.86.03.06.46 1.01.49 1.07 12.24 25.14 14.91 57.15 6.07 78.02-34.44-2.19-64.52-1.55-85.5 5.32V177.7c0-9.78-2.63-19.26-7.59-27.42-8.33-13.69-22.36-22.41-38.5-23.93-16.52-1.55-32.11 4.83-43.44 16.87-4.19 4.45-8.33 8.53-12.43 12.28-2.67-2.9-5.28-5.93-7.83-9.09-13.67-16.89-35.86-23.34-56.55-16.42-20.45 6.84-33.61 24.39-34.34 45.81-.02.63-.03 1.26-.03 1.9v26.27c-19.9-.39-30.83-4.73-39.68-8.23-8.46-3.35-15.76-6.25-26.81-3.96-9.78 2.02-17.78 8.48-23.29 18.75-20.7-1.45-42.96-3.87-65.72-6.5-1.92-.23-3.65 1.15-3.88 3.07a3.506 3.506 0 0 0 3.08 3.88c21.89 2.54 43.34 4.86 63.46 6.34-7.84 20.79-6.04 49.69 4.33 75.26.52 1.3 1.07 2.59 1.64 3.86.06.16.14.32.22.48 1.42 2.97 2.9 5.89 4.47 8.77 16.36 30.35 40.05 56.17 69.11 75.2 33.72 22.08 72.94 33.75 113.42 33.75 94.76 0 177.34-64.02 200.84-155.69.48-1.87-.65-3.78-2.52-4.26s-3.78.65-4.26 2.52c-22.7 88.57-102.5 150.43-194.06 150.43-39.11 0-77.01-11.28-109.58-32.61-30.75-20.13-55.27-48.12-71.11-81.12-.05-.11-.11-.23-.16-.35-11.47-25.69-13.58-55.5-5-75.74 34.44 2.19 64.51 1.54 85.5-5.32v24.53c0 18.06 8.62 34.12 23.64 44.05a49.481 49.481 0 0 0 27.35 8.22c13.97 0 27.9-5.83 38.17-17.02 3.32-3.62 6.67-7.08 10.06-10.36 4.32 3.82 8.66 7.87 13 12.12 9.84 9.64 23.18 15.05 36.93 15.05.86 0 1.73-.02 2.6-.07 14.52-.72 27.6-7.19 36.82-18.21 7.94-9.49 12.14-21.17 12.14-33.78v-26.4c19.91.41 30.81 4.73 39.67 8.24 6.36 2.51 12.06 4.77 19.18 4.77 2.36 0 4.88-.25 7.63-.81 9.78-2.03 17.78-8.49 23.29-18.76 20.7 1.46 42.97 3.87 65.72 6.51 1.92.23 3.66-1.16 3.88-3.08a3.504 3.504 0 0 0-3.07-3.88zm-438.96 7.42c3.52-5.45 8.89-10.75 16.88-12.41 9-1.86 14.79.44 22.82 3.61 6.43 2.55 13.89 5.5 24.75 7.25-17.71 2.92-39.83 3.01-64.45 1.55zm88.95-33.34c0-.56.01-1.11.03-1.67.75-22.01 15.76-34.78 29.56-39.4 4.45-1.49 9.48-2.39 14.74-2.39 11.6 0 24.29 4.39 34.15 16.58 2.62 3.24 5.3 6.36 8.03 9.34-35.89 30.84-67.44 37.01-86.51 42.46V177.7zm77 89.84c-14.91 16.24-38.67 19.48-56.5 7.7-13.03-8.61-20.5-22.54-20.5-38.21v-25.46c17.07 3.6 33.9 10.2 50.69 19.91 12.07 6.99 24.12 15.58 36.22 25.83-3.34 3.25-6.64 6.67-9.91 10.23zm15-15.08c-26.56-22.61-52.95-37.5-79.92-45.11 29.97-7.97 56.58-22.01 79.45-41.92 22.51 22.81 48.43 37.14 77.41 42.81-27.81 7.69-53.23 22.3-76.94 44.22zm94.71-15.43c0 10.95-3.64 21.07-10.51 29.29-7.95 9.51-19.25 15.09-31.8 15.71-12.71.63-25.21-4.1-34.28-12.99-4.27-4.18-8.54-8.17-12.8-11.96 27.17-24.94 56.61-39.96 89.39-45.65v25.6zm0-33.44c-34.15-2.61-64.32-16.99-89.97-42.84 4.35-4.06 8.56-8.34 12.63-12.84 9.59-10.62 23.29-15.93 37.6-14.59 13.91 1.31 26 8.82 33.17 20.6 4.3 7.06 6.57 15.28 6.57 23.78v25.89zm72.06 12.38c-8.99 1.86-14.79-.43-22.81-3.61-6.44-2.55-13.89-5.5-24.75-7.24 17.71-2.93 39.82-3.01 64.45-1.56-3.52 5.45-8.9 10.76-16.89 12.41z" fill="#d66841"/><circle cx="463.31" cy="234.3" r="10.89" fill="#da3a24"/><circle cx="58.09" cy="179.87" r="10.89" fill="#da3a24"/><path d="M199.52 333.44l-1.51 1.17-7.41-9.49-2.39 2.44v6.99h-1.92v-18.62h1.92v8.89l8.63-8.87 1.35 1.35-6.24 6.42 7.57 9.7zm16.98 1.12h-1.98v-18.67h1.98v18.67zm22.59-8.4l-4.26-.03v8.4h-1.87v-18.62l6.37.03c2.78 0 4.89 2.42 4.89 5.12s-2.29 5.12-5.12 5.1zm.1-8.37h-4.37v6.53h4.37c1.72 0 3.17-1.56 3.17-3.25s-1.38-3.28-3.17-3.28zm26.16 8.37l-4.26-.03v8.4h-1.87v-18.62l6.37.03c2.78 0 4.89 2.42 4.89 5.12s-2.29 5.12-5.12 5.1zm.1-8.37h-4.37v6.53h4.37c1.72 0 3.17-1.56 3.17-3.25s-1.38-3.28-3.17-3.28zm27.07 17.02c-5.12 0-7.98-4.89-7.98-9.54s2.91-9.54 7.98-9.54 7.98 4.89 7.98 9.54-2.83 9.54-7.98 9.54zm0-17.08c-3.87 0-6.01 4.11-6.01 7.54s2.11 7.57 6.01 7.57 6.01-4.13 6.01-7.57-2.13-7.54-6.01-7.54zm37.57 10.3c0 4.16-3.48 6.79-7.44 6.79s-7.41-2.57-7.41-6.79v-12.19h2v12.12c0 2.94 2.63 4.89 5.41 4.89s5.43-1.95 5.43-4.89v-12.12h2v12.19z" fill="#da3a24"/></svg>