<svg xmlns="http://www.w3.org/2000/svg" viewBox="0 0 412.59 87.92"><path d="M34.92 28.86c-2.58.22-11.68 1.01-13.7 1.46-1.24.22-6.51 2.69-7.64 2.69-1.01 0-1.46-1.24-1.46-1.91 0-1.12.67-4.49 2.02-5.61 1.01.23 1.24.34 3.03.34 2.02 0 14.26-1.35 16.96-1.46-.56-3.14-1.57-9.66-3.03-13.93-.34-.9-2.02-4.38-2.02-5.16 0-2.02 4.72-4.27 6.29-4.27 1.91 0 1.91 1.01 2.02 3.71.11 2.81.56 10.33 1.8 19.2 3.26-.34 14.48-1.35 16.96-1.8 3.03-.56 8.87-1.68 8.98-1.68.22 0 .34.11.34.34s-1.8 4.83-3.48 5.95c-1.46.9-2.13.9-8.42 1.12-8.42.22-9.32.22-13.59.67l3.37 17.85c12.24-1.35 23.92-2.58 29.31-3.48 1.24-.23 6.4-1.46 7.52-1.46.67 0 .79.34.79.79 0 1.46-3.37 8.08-6.85 8.08-1.46 0-8.42-.45-9.88-.45-8.31 0-16.84.79-19.99 1.01 1.57 8.08 3.14 16.06 5.17 23.81 2.25 8.53 2.47 9.43 2.47 10.33 0 1.24-1.91 1.57-2.92 1.57-3.26 0-6.96-.22-6.96-3.03 0-9.32-.34-11.68-3.59-32.23-5.73.45-22.8 2.58-28.52 4.04-1.35.34-6.85 2.58-8.08 2.58-.79 0-1.8-.34-1.8-1.91 0-1.12.67-5.95 2.36-7.52 4.49.9 5.05 1.01 6.06 1.01 4.94 0 23.69-2.02 29.31-2.58-.22-1.57-2.47-15.72-2.81-18.08zm86.47 3.82c3.03 0 12.58 14.15 12.58 18.64 0 .79-.67 1.57-1.57 1.57-1.24 0-1.91-.79-8.09-7.86-1.35-1.57-5.61-5.95-6.85-6.4-1.24-.56-1.46-.56-1.46-1.24 0-1.35 3.93-4.72 5.39-4.72zm47.95-1.12c0-1.46 3.14-2.58 5.28-2.58.79 0 2.13.11 2.13 1.91 0 .79-1.35 3.93-1.46 4.72-8.08 41.66-39.3 49.75-42.78 49.75-2.81 0-8.98-1.91-8.98-3.48 0-1.01.9-1.24 8.53-3.59 9.99-3.14 23.36-10.78 30.65-22.8 5.05-8.31 7.3-20.21 7.3-21.22 0-.45-.67-2.36-.67-2.69zm-30.43-4.16c3.48 0 12.69 14.49 12.69 17.97 0 .9-.45 2.13-1.46 2.13s-1.8-.9-8.87-8.42c-1.8-1.91-4.83-5.05-6.29-5.73-1.12-.45-1.46-.56-1.46-1.24 0-1.46 4.16-4.72 5.39-4.72zm95.9 35.82c-4.6 5.73-12.13 10.56-15.05 10.56-2.25 0-7.3-2.92-7.3-4.16 0-.67 6.63-3.03 7.86-3.59 11.34-5.61 16.06-14.6 17.07-18.64.79-3.14.9-3.48 2.81-3.48 1.46 0 2.25 1.01 2.25 2.36 0 3.37-3.93 12.24-7.64 16.96zm24.93-36.16c4.38-.22 23.36-.56 27.17-.79 1.57-.11 9.1-.79 9.99-.79.56 0 1.01.11 1.01.79 0 1.69-3.82 7.64-6.4 7.64-1.57 0-8.2-1.57-9.55-1.8-6.63-.79-15.5-.79-22.23-.67 0 2.81-.22 15.16-.22 17.74 0 4.94.9 26.95.9 31.44 0 1.35 0 7.3-3.71 7.3-3.37 0-4.83-5.05-4.83-6.06 0-.67.67-3.93.79-4.6 1.01-14.26 2.02-28.3 1.57-45.82-9.1.23-14.71.34-22.8 2.02-1.69.34-8.98 2.58-10.44 2.58-.79 0-1.91-.11-1.91-1.8 0-1.57 1.8-5.73 3.71-7.3 2.47 1.01 3.59 1.24 7.41 1.24 7.07 0 14.04-.34 23.92-.9 0-2.24-.34-12.58-.34-14.71 0-1.68 0-2.13-.34-2.69-.22-.45-1.46-2.58-1.46-2.92 0-2.69 3.59-5.16 6.51-5.16 2.25 0 2.81 2.36 2.81 3.37s-.79 4.94-.9 5.84c-.45 3.59-.67 8.76-.67 12.46v3.59zm14.93 19.32c0-2.47 1.35-2.47 2.25-2.47 2.13 0 2.25.79 2.36 2.69.22 4.04 10.11 20.89 20.66 20.89.56 0 3.48-.67 4.04-.67.45 0 .45.11.45.45 0 2.7-4.38 9.1-9.77 9.1-8.08 0-19.99-23.02-19.99-29.98zm14.26-28.19c-5.28 0-9.21-4.15-9.21-9.1S283.76 0 288.93 0s9.32 4.27 9.32 9.09-3.93 9.1-9.32 9.1zm0-15.72c-3.82 0-6.74 3.03-6.74 6.62s2.81 6.74 6.74 6.74c4.15 0 6.85-3.26 6.85-6.74s-2.81-6.62-6.85-6.62zm90.43 19.69c-.21-2.25-2.04-12.01-2.04-14.04 0-2.89 2.89-4.07 4.82-4.07 3.97 0 3.97 4.07 3.97 4.72 0 .96-.11 1.5-.96 6.97-.21 1.5-.21 1.93-.64 6.43 5.47-.11 16.29-.21 21.55-.32 1.39-1.07 3-2.25 4.61-2.25s1.93 1.07 1.93 2.14c0 .75-.11 19.3-9.22 34.84-7.5 12.86-22.94 25.83-33.55 25.83-3.11 0-10.18-3.75-10.18-5.79 0-.21 10.08-2.57 11.9-3.22 27.55-9.32 34.19-31.3 34.84-46.63-22.19 0-37.95.11-46.31.21-.21 2.79-.75 15.44-1.07 17.9-.43 2.68-1.07 3.54-2.25 3.54s-1.82-.54-2.57-3.65c-2.04-9.11-2.57-20.48-2.57-20.8 0-2.57 2.04-4.72 4.61-4.72 1.5 0 3.65.86 4.07 2.79 9.43.21 10.4.21 19.08.11z" fill="#da3a24"/></svg>