<svg xmlns="http://www.w3.org/2000/svg" viewBox="0 0 622.3 140.52"><path d="M87.91 140.52c-13.72 0-27.01-3.96-38.44-11.44-9.79-6.41-17.89-15.23-23.42-25.49a67.84 67.84 0 0 1-1.52-2.97c-.04-.07-.07-.14-.09-.2-.18-.41-.37-.85-.55-1.29-3.46-8.53-4.09-18.05-1.69-25.06-6.96-.53-14.36-1.35-20.72-2.09a1.67 1.67 0 0 1-1.47-1.85 1.674 1.674 0 0 1 1.86-1.47c7.17.83 14.76 1.66 21.77 2.16 1.92-3.42 4.69-5.59 8.02-6.28.93-.19 1.8-.29 2.67-.29 2.49 0 4.5.8 6.63 1.64 2.88 1.14 6.41 2.54 12.68 2.73v-8.33-.66c.25-7.42 4.81-13.5 11.9-15.87 1.88-.63 3.82-.95 5.77-.95 5.36 0 10.39 2.42 13.81 6.63.74.92 1.51 1.81 2.28 2.67 1.26-1.17 2.54-2.44 3.79-3.77 3.59-3.81 8.32-5.91 13.34-5.91.56 0 1.13.03 1.69.08 5.59.53 10.45 3.55 13.33 8.29 1.72 2.83 2.63 6.11 2.63 9.49v7.53c4.42-1.34 10.17-1.99 17.53-1.99 3.15 0 6.56.12 10.42.36 2.73-6.83 1.85-17.25-2.17-25.51l-.16-.36c-5.44-10.89-13.81-20.11-24.2-26.67-10.67-6.74-23.01-10.3-35.68-10.3-30.5.01-57.13 20.59-64.78 50.06a1.678 1.678 0 0 1-2.04 1.21 1.68 1.68 0 0 1-1.2-2.04C27.92 21.62 55.89 0 87.91 0c13.31 0 26.27 3.74 37.47 10.82 10.25 6.48 18.7 15.5 24.43 26.09 0 0 .66 1.27.7 1.35 4.66 9.21 5.85 20.18 3.1 28.18 6.82.52 13.98 1.3 20.72 2.08.92.11 1.58.94 1.47 1.86-.1.85-.81 1.49-1.66 1.49-.07 0-.13 0-.2-.01-7.09-.82-14.63-1.65-21.77-2.17-1.92 3.42-4.69 5.59-8.02 6.28-.94.19-1.81.28-2.67.28-2.48 0-4.49-.79-6.62-1.63-2.87-1.14-6.4-2.54-12.69-2.73v8.37c0 4.36-1.45 8.4-4.2 11.69-3.19 3.82-7.72 6.06-12.75 6.31-.3.02-.6.02-.9.02-4.74 0-9.4-1.9-12.78-5.21-1.35-1.32-2.69-2.58-4.01-3.75a83.9 83.9 0 0 0-3.03 3.14c-3.43 3.74-8.25 5.89-13.21 5.89-3.38 0-6.65-.98-9.48-2.85-5.2-3.44-8.18-8.99-8.18-15.24v-7.57c-4.43 1.34-10.18 1.99-17.54 1.99-3.15 0-6.55-.12-10.4-.35-2.66 6.64-1.96 16.31 1.81 24.76l.05.11a67.14 67.14 0 0 0 23.75 27.09c10.88 7.13 23.54 10.89 36.6 10.89 30.58 0 57.23-20.66 64.82-50.24.19-.74.86-1.26 1.63-1.26.14 0 .28.02.42.05.43.11.8.39 1.03.77.23.39.29.84.18 1.27-7.96 31.07-35.95 52.76-68.07 52.76zM57 80.25c0 5.1 2.43 9.64 6.67 12.44 2.27 1.5 4.91 2.29 7.63 2.29 4.02 0 7.94-1.75 10.74-4.8 1-1.09 2-2.12 2.96-3.08-3.88-3.26-7.82-6.04-11.7-8.29-5.36-3.1-10.84-5.29-16.31-6.51v7.95zm32.99 6.74c1.3 1.17 2.62 2.4 3.91 3.67 2.75 2.7 6.55 4.25 10.43 4.25.24 0 .49 0 .73-.02 4.08-.2 7.76-2.02 10.34-5.11 2.24-2.68 3.42-5.98 3.42-9.54v-8.02C108.24 74.17 98.8 79 89.99 86.98zM62.36 70.28c8.49 2.68 16.71 7.43 25.08 14.5 7.44-6.81 15.28-11.45 23.88-14.14-8.92-2.13-17.01-6.76-24.05-13.8-7.23 6.21-15.6 10.72-24.91 13.44zm68.18-.67c2.21.56 3.95 1.24 5.53 1.87 1.98.79 3.54 1.4 5.41 1.4.64 0 1.28-.07 1.98-.21 1.9-.39 3.54-1.48 4.86-3.24-3.17-.17-6.01-.26-8.66-.26-3.43 0-6.45.14-9.13.44zM27.48 71.05c3.16.17 6 .26 8.66.26 3.43 0 6.44-.14 9.13-.43-2.22-.56-3.95-1.25-5.54-1.87-2-.79-3.56-1.4-5.41-1.4-.64 0-1.28.07-1.98.21-1.9.4-3.53 1.48-4.86 3.24zm62.28-16.46c8.32 8.24 18.09 12.9 29.06 13.86v-8.17c0-2.77-.74-5.44-2.14-7.74-2.33-3.83-6.26-6.27-10.78-6.69-.47-.04-.95-.07-1.42-.07-4.17 0-8.01 1.71-10.82 4.81a70.22 70.22 0 0 1-3.9 4zm-18.35-8.43c-1.62 0-3.28.27-4.8.78-4.48 1.5-9.36 5.65-9.61 12.8v8.27c.47-.13.96-.26 1.46-.4 6.32-1.72 15.83-4.3 26.43-13.27-.8-.89-1.6-1.83-2.37-2.78-3.61-4.46-8.03-5.39-11.1-5.39z" fill="#313333"/><path d="M156.01 81.8c-2.3 0-4.16-1.87-4.16-4.16s1.87-4.16 4.16-4.16 4.16 1.87 4.16 4.16-1.87 4.16-4.16 4.16z" fill="#313333"/><circle cx="20.22" cy="62.27" r="4.16" fill="#313333"/><g><path d="M244.64 55.31c-2.58.22-11.68 1.01-13.7 1.46-1.24.22-6.51 2.69-7.64 2.69-1.01 0-1.46-1.24-1.46-1.91 0-1.12.67-4.49 2.02-5.61 1.01.23 1.24.34 3.03.34 2.02 0 14.26-1.35 16.96-1.46-.56-3.14-1.57-9.66-3.03-13.93-.34-.9-2.02-4.38-2.02-5.16 0-2.02 4.72-4.27 6.29-4.27 1.91 0 1.91 1.01 2.02 3.71.11 2.81.56 10.33 1.8 19.2 3.26-.34 14.48-1.35 16.96-1.8 3.03-.56 8.87-1.68 8.98-1.68.22 0 .34.11.34.34s-1.8 4.83-3.48 5.95c-1.46.9-2.13.9-8.42 1.12-8.42.22-9.32.22-13.59.67l3.37 17.85c12.24-1.35 23.92-2.58 29.31-3.48 1.24-.23 6.4-1.46 7.52-1.46.67 0 .79.34.79.79 0 1.46-3.37 8.08-6.85 8.08-1.46 0-8.42-.45-9.88-.45-8.31 0-16.84.79-19.99 1.01 1.57 8.08 3.14 16.06 5.17 23.81 2.25 8.53 2.47 9.43 2.47 10.33 0 1.24-1.91 1.57-2.92 1.57-3.26 0-6.96-.22-6.96-3.03 0-9.32-.34-11.68-3.59-32.23-5.73.45-22.8 2.58-28.52 4.04-1.35.34-6.85 2.58-8.08 2.58-.79 0-1.8-.34-1.8-1.91 0-1.12.67-5.95 2.36-7.52 4.49.9 5.05 1.01 6.06 1.01 4.94 0 23.69-2.02 29.31-2.58-.22-1.57-2.47-15.72-2.81-18.08zm86.46 3.82c3.03 0 12.58 14.15 12.58 18.64 0 .79-.67 1.57-1.57 1.57-1.24 0-1.91-.79-8.09-7.86-1.35-1.57-5.61-5.95-6.85-6.4-1.24-.56-1.46-.56-1.46-1.24 0-1.35 3.93-4.72 5.39-4.72zm47.95-1.12c0-1.46 3.14-2.58 5.28-2.58.79 0 2.13.11 2.13 1.91 0 .79-1.35 3.93-1.46 4.72-8.08 41.66-39.3 49.75-42.78 49.75-2.81 0-8.98-1.91-8.98-3.48 0-1.01.9-1.24 8.53-3.59 9.99-3.14 23.36-10.78 30.65-22.8 5.05-8.31 7.3-20.21 7.3-21.22 0-.45-.67-2.36-.67-2.69zm-30.43-4.16c3.48 0 12.69 14.49 12.69 17.97 0 .9-.45 2.13-1.46 2.13s-1.8-.9-8.87-8.42c-1.8-1.91-4.83-5.05-6.29-5.73-1.12-.45-1.46-.56-1.46-1.24 0-1.46 4.16-4.72 5.39-4.72zm95.9 35.82c-4.6 5.73-12.13 10.56-15.05 10.56-2.25 0-7.3-2.92-7.3-4.16 0-.67 6.63-3.03 7.86-3.59 11.34-5.61 16.06-14.6 17.07-18.64.79-3.14.9-3.48 2.81-3.48 1.46 0 2.25 1.01 2.25 2.36 0 3.37-3.93 12.24-7.64 16.96zm24.93-36.16c4.38-.22 23.36-.56 27.17-.79 1.57-.11 9.1-.79 9.99-.79.56 0 1.01.11 1.01.79 0 1.69-3.82 7.64-6.4 7.64-1.57 0-8.2-1.57-9.55-1.8-6.63-.79-15.5-.79-22.23-.67 0 2.81-.22 15.16-.22 17.74 0 4.94.9 26.95.9 31.44 0 1.35 0 7.3-3.71 7.3-3.37 0-4.83-5.05-4.83-6.06 0-.67.67-3.93.79-4.6 1.01-14.26 2.02-28.3 1.57-45.82-9.1.23-14.71.34-22.8 2.02-1.69.34-8.98 2.58-10.44 2.58-.79 0-1.91-.11-1.91-1.8 0-1.57 1.8-5.73 3.71-7.3 2.47 1.01 3.59 1.24 7.41 1.24 7.07 0 14.04-.34 23.92-.9 0-2.24-.34-12.58-.34-14.71 0-1.68 0-2.13-.34-2.69-.22-.45-1.46-2.58-1.46-2.92 0-2.69 3.59-5.16 6.51-5.16 2.25 0 2.81 2.36 2.81 3.37s-.79 4.94-.9 5.84c-.45 3.59-.67 8.76-.67 12.46v3.59zm14.93 19.32c0-2.47 1.35-2.47 2.25-2.47 2.13 0 2.25.79 2.36 2.69.22 4.04 10.11 20.89 20.66 20.89.56 0 3.48-.67 4.04-.67.45 0 .45.11.45.45 0 2.7-4.38 9.1-9.77 9.1-8.08 0-19.99-23.02-19.99-29.98zm14.26-28.19c-5.28 0-9.21-4.15-9.21-9.1s4.04-9.09 9.21-9.09 9.32 4.27 9.32 9.09-3.93 9.1-9.32 9.1zm0-15.72c-3.82 0-6.74 3.03-6.74 6.62s2.81 6.74 6.74 6.74c4.15 0 6.85-3.26 6.85-6.74s-2.81-6.62-6.85-6.62zm90.43 19.69c-.21-2.25-2.04-12.01-2.04-14.04 0-2.89 2.89-4.07 4.82-4.07 3.97 0 3.97 4.07 3.97 4.72 0 .96-.11 1.5-.96 6.97-.21 1.5-.21 1.93-.64 6.43 5.47-.11 16.29-.21 21.55-.32 1.39-1.07 3-2.25 4.61-2.25s1.93 1.07 1.93 2.14c0 .75-.11 19.3-9.22 34.84-7.5 12.86-22.94 25.83-33.55 25.83-3.11 0-10.18-3.75-10.18-5.79 0-.21 10.08-2.57 11.9-3.22 27.55-9.32 34.19-31.3 34.84-46.63-22.19 0-37.95.11-46.31.21-.21 2.79-.75 15.44-1.07 17.9-.43 2.68-1.07 3.54-2.25 3.54s-1.82-.54-2.57-3.65c-2.04-9.11-2.57-20.48-2.57-20.8 0-2.57 2.04-4.72 4.61-4.72 1.5 0 3.65.86 4.07 2.79 9.43.21 10.4.21 19.08.11z" fill="#313333"/></g></svg>