<svg xmlns="http://www.w3.org/2000/svg" width="19.025" height="301.875"><path data-name="パス 5" d="M18.8 295.7a4.917 4.917 0 0 1-.275-1.95c0-.65-.175-1.225-.225-1.925a3.07 3.07 0 0 0-.875-1.8 2.277 2.277 0 0 0-1.35-.875 7.053 7.053 0 0 0-1.7-.4 3.939 3.939 0 0 0-1.8.6 7.751 7.751 0 0 0-1.625.95 6.18 6.18 0 0 0-1.825 2.35 17.021 17.021 0 0 0-.95 2.675 8.216 8.216 0 0 1-1.125 2.525 2.172 2.172 0 0 1-1.075.775l-2-.35a4.615 4.615 0 0 1-.775-1.425c-.075-.475-.25-1.05-.325-1.5a3.074 3.074 0 0 1 0-1.35c.075-.425.25-.825.325-1.25a1.853 1.853 0 0 1 1.025-1.125v-.525l-.575-.575a4.8 4.8 0 0 0-1.7.5 5.592 5.592 0 0 0-1.025 1.3 4.685 4.685 0 0 0-.5 1.475c-.075.45-.25.95-.35 1.45a5.923 5.923 0 0 0 .1 1.35 4.727 4.727 0 0 0 .425 1.225 7.468 7.468 0 0 0 .7 1.15 8.364 8.364 0 0 0 1.325.7 12.239 12.239 0 0 0 1.525.525 4.624 4.624 0 0 0 2-.2 8.646 8.646 0 0 0 2.2-.725 13.8 13.8 0 0 0 1.2-1.225 2.268 2.268 0 0 0 .6-1.5c.075-.5.15-1.075.25-1.525.275-.525.3-.95.5-1.375a4.075 4.075 0 0 1 1.3-1.2l.875-.45.5.15c.975.3 1.325.7 1.5 1.225a13.3 13.3 0 0 0 .625 1.55 4.9 4.9 0 0 1 .45 1.8l-.45 1.575a5.593 5.593 0 0 1-.975 1.125 10.136 10.136 0 0 1-1.625.85 3.074 3.074 0 0 0-1.2 1.025l.1.575a5 5 0 0 0 1.825-.3 12.976 12.976 0 0 0 1.75-.55c.575-.2 1.375-.225 1.8-.65a2.464 2.464 0 0 0 .75-1.45c.1-.525.3-1.05.4-1.575a9.86 9.86 0 0 0 .275-1.65zm.075-11.175l-.1-.325a4.261 4.261 0 0 0-1.825-.6c-.575-.075-1.25-.125-1.925-.2s-2.025-.075-3.625-.075l-.225-1.225c-.075-.475.125-1.7.05-2.2a4.555 4.555 0 0 0-.325-1.875 6.462 6.462 0 0 0-1-1.65 1.527 1.527 0 0 0-1.1-.875c-.5-.125-1.125-.25-1.6-.325-.7 0-1.175.1-1.425.075a5.154 5.154 0 0 0-1.425.225c-.425.2-.925.4-1.325.625a6.571 6.571 0 0 0-1.525 1.975c-.25.725-.5 1.45-.75 2.2-.25 1.425-.6 2.025-.5 2.775l-.25.875a2.469 2.469 0 0 1 .075 1.2c.25.225.225.55.4.95l.825.4a2.886 2.886 0 0 1 1.5-.3 10.737 10.737 0 0 0 1.6-.075l4.275.225h1.75a10.541 10.541 0 0 0 2.175 0c1.425-.1 2.1-.15 2.75-.225a9.551 9.551 0 0 0 2.025-.35 3.668 3.668 0 0 0 1.5-1.225zm-11.05-5.6l.325 3.1a1.41 1.41 0 0 1-.325 1.3l-2.225.025-.825-.025a3.549 3.549 0 0 1-2.05-.325c-.275-.35-.1-.725.075-1.175.15-1 .25-1.45.325-1.875a2.725 2.725 0 0 1 .5-1.2 3.651 3.651 0 0 1 1.475-.925h.35c.575.025 2.125.575 2.375 1.1zm10.875-10.25c0-.575-.325-2.225-.425-2.85l-.675-.675-.575.225a3.128 3.128 0 0 0-.5 1.45 2.976 2.976 0 0 1-.325 1.025l-2.175-.275-3.7-.275-.55.05-1.175.075-.9-.075-1.775.175a7.952 7.952 0 0 1-1.575-.1 11.9 11.9 0 0 1-1.6-.275 5.805 5.805 0 0 0-.75-1.325l-.5-.25-.85.1-.475 1.7a15.676 15.676 0 0 1 .075 1.875c.075.675.175 1.275.25 1.85a14.918 14.918 0 0 0 .425 1.925h.525a2.3 2.3 0 0 0 1.225-1.6L2.5 271l.1-.475a3.235 3.235 0 0 1 1.325-.325 7.959 7.959 0 0 0 1.5-.15h.6a30.04 30.04 0 0 1 3.675 0s1.225.075 2.4.15c1.25.075 1.925.075 3.175.075a4.175 4.175 0 0 1 1.075.35l-.075.45-.2 1.4.225.55c.575-.25 1.25-.15 1.7-.55a2.4 2.4 0 0 0 .625-1.4 12.78 12.78 0 0 0 .075-2.4zm.325-7.825l-.15-.525a7.316 7.316 0 0 0-2.1-.45c-.75-.075-1.5-.175-2.25-.25s-1.425-.15-2.175-.225l-.925.075h-1.75A6.188 6.188 0 0 0 8.5 259.4a20.151 20.151 0 0 0-2.55.15 20.018 20.018 0 0 0 4.55-2.5c1.1-.75 2.175-1.45 3.375-2.175a42.193 42.193 0 0 1 4.2-2.225 1.983 1.983 0 0 0 .5-1.025l-.175-.525a5.84 5.84 0 0 0-2.3-1.2c-.4-.05-.825-.225-1.25-.275l-2.425-.225-.425.075-5.225-.175-.5.1a6.505 6.505 0 0 0-1.5-.175 3.044 3.044 0 0 1-1.425-.3 2.659 2.659 0 0 0-1.65.025l-1.2.625-.425.9a3.746 3.746 0 0 0 .15 1.15A1.929 1.929 0 0 0 .9 252.7l.4-.05 1.05-.275 3.75-.1 5.15.05 2.45.125a12.787 12.787 0 0 0-3.175 1.375 33.465 33.465 0 0 1-3.075 1.725 32.031 32.031 0 0 1-3.9 1.75 9.312 9.312 0 0 0-2.425 1.225c-.375.475-.5.8-.75 1.125l.05.4a5.324 5.324 0 0 1-.05 1.075 9.118 9.118 0 0 1-.25 1.175 5.787 5.787 0 0 0 .875.3l1.5.05 2.3.025h7.55c.575-.1 1.075-.1 1.675-.175a12.708 12.708 0 0 0 1.675-.075 9.738 9.738 0 0 0 1.575-.325c.325-.15.675-.275 1-.45a1.393 1.393 0 0 0 .75-.8zm-.2-26.875a2.031 2.031 0 0 0-.75-1.65c-.675-.25-1.35-.55-2-.775a16.853 16.853 0 0 1-1.85-.75c-.575-.325-1.25-.575-1.85-.9a3.079 3.079 0 0 0-.175-1.85 10.526 10.526 0 0 0-.075-1.975 6.693 6.693 0 0 0-.575-1.775l.25-.6s.7-.65 1-.85c.75-.225 1.425-.5 2.6-.825.675-.25 1.325-.55 2.075-.825l1.275-1-.175-.825-.95-.925c-.925.175-1.75.4-2.6.625a10.569 10.569 0 0 0-2.7 1.075 5.5 5.5 0 0 1-2.275.7 9.793 9.793 0 0 1-2.925 1.6c-1 .375-2 .825-3 1.2a28.372 28.372 0 0 1-3.1 1.15 1.637 1.637 0 0 0-.925.9 5.577 5.577 0 0 0 .45 1.95 8.141 8.141 0 0 0 3.275 1.725c1.25.3 2.275.925 3.425 1.25a15.909 15.909 0 0 1 3.425 1.275 5.579 5.579 0 0 1 1.95.775 12.188 12.188 0 0 0 2.35.95c.85.275 1.675.6 2.425.825a1.722 1.722 0 0 0 1.425-.475zM9.375 225c.075.3.175.75.25 1.125a5.061 5.061 0 0 1 0 1.375.87.87 0 0 1-.375.875 4 4 0 0 1-1.425-.475c-.525-.05-.9-.275-1.425-.35-.5-.1-1.175-.3-1.6-.425l.175-.05a11.2 11.2 0 0 1 1.175-.825c.425-.225.75-.375 1.175-.6.425-.2.925-.35 1.725-.7zm9.65-10.4l-.15-.525a7.316 7.316 0 0 0-2.1-.45c-.75-.075-1.5-.175-2.25-.25s-1.425-.15-2.175-.225l-.925.075h-1.75a6.188 6.188 0 0 0-1.175-.075 20.151 20.151 0 0 0-2.55.15 20.019 20.019 0 0 0 4.55-2.5c1.1-.75 2.175-1.45 3.375-2.175a42.193 42.193 0 0 1 4.2-2.225 1.983 1.983 0 0 0 .5-1.025l-.175-.525a5.84 5.84 0 0 0-2.3-1.2c-.4-.05-.825-.225-1.25-.275l-2.425-.225-.425.075-5.225-.175-.5.1a6.506 6.506 0 0 0-1.5-.175 3.044 3.044 0 0 1-1.425-.3 2.659 2.659 0 0 0-1.65.025l-1.2.625-.425.9a3.746 3.746 0 0 0 .15 1.15A1.929 1.929 0 0 0 .9 206.45l.4-.05 1.05-.275 3.75-.1 5.15.05 2.45.125a12.787 12.787 0 0 0-3.175 1.375A33.466 33.466 0 0 1 7.45 209.3a32.032 32.032 0 0 1-3.9 1.75 9.312 9.312 0 0 0-2.425 1.225c-.375.475-.5.8-.75 1.125l.05.4a5.324 5.324 0 0 1-.05 1.075 9.119 9.119 0 0 1-.25 1.175 5.788 5.788 0 0 0 .875.3l1.5.05 2.3.025h7.55c.575-.1 1.075-.1 1.675-.175a12.709 12.709 0 0 0 1.675-.075 9.739 9.739 0 0 0 1.575-.325c.325-.15.675-.275 1-.45a1.393 1.393 0 0 0 .75-.8zm-.1-16.15a21.269 21.269 0 0 1-.65-2.875 16.047 16.047 0 0 0-.475-2.7c-.25-.875-.225-1.75-.45-2.875a5.959 5.959 0 0 0-1.5-3.1 8.116 8.116 0 0 0-1.35-1.1c-.4-.25-.925-.475-1.425-.75-.9.1-1.75.2-2.675.325a20.532 20.532 0 0 1-2.575.4A5.267 5.267 0 0 0 5.55 186.9c-.75.725-1.4 1.475-2.175 2.225a18.271 18.271 0 0 0-1.75 2.45A6.422 6.422 0 0 0 .8 194.45l-.225 1.7A21.428 21.428 0 0 0 .2 199.3a.509.509 0 0 0 .25.65l1-.275 11.625.2 1.275-.075 1.65.175c1.925.275 2.025-.2 2.275-.55a1.963 1.963 0 0 0 .65-.975zm-6.125-9.725a11.841 11.841 0 0 1 1.375 2.55c.275 1 .35 1.875.6 2.725.25 1 .825 1.95.725 2.85l-.35.25-2.3-.05-1.775.1-4.875-.175-.775.175-1.675-.25a1.386 1.386 0 0 1-.6-.925 3.921 3.921 0 0 0-.1-1.075 6.4 6.4 0 0 1 .45-1.6c.25-.525.5-1.025.75-1.525.325-.425.675-.9 1.075-1.35.425-.425.875-.775 1.3-1.2a5.306 5.306 0 0 1 1.4-.725c.6-.125 1.125-.3 1.625-.35l1.925-.05zm5.9-26.575v-.45a3.853 3.853 0 0 0-2-.525 5.841 5.841 0 0 1-2.175-.175c-.675-.05-1.35-.125-2.1-.2l-.825.075-6.025.075H4.4a1.3 1.3 0 0 1-1-.3 5.323 5.323 0 0 1-.4-1.775c0-.725-.775-2-.775-2.75l-.575-.65-.675.2A2.575 2.575 0 0 0 .3 157.4v5.15c0 1.075.125 2.5.25 3.7a9.735 9.735 0 0 1-.325 3.15l.15.575.675.225a1.644 1.644 0 0 0 1.175-.35 4.086 4.086 0 0 0 1.2-1.05 2.762 2.762 0 0 0 .125-1.625c-.05-.8-.075-2.025-.15-2.375l.175-.4a3.225 3.225 0 0 1 1.325-.3 3.025 3.025 0 0 0 1.5 0l3.425.125a6.6 6.6 0 0 1 1.6-.125 10.209 10.209 0 0 0 1.575-.15l.85.075c.575-.075 1.25-.15 1.85-.225a2.613 2.613 0 0 0 1.575-.65 12.036 12.036 0 0 0 1.425-1zm0-13.475c0-.575-.325-2.225-.425-2.85l-.675-.675-.575.225a3.128 3.128 0 0 0-.5 1.45 2.976 2.976 0 0 1-.325 1.025l-2.175-.275-3.7-.275-.55.05-1.175.075-.9-.075-1.775.175a7.953 7.953 0 0 1-1.575-.1 11.9 11.9 0 0 1-1.6-.275 5.806 5.806 0 0 0-.75-1.325l-.5-.25-.85.1-.475 1.7a15.676 15.676 0 0 1 .075 1.875c.075.675.175 1.275.25 1.85a14.918 14.918 0 0 0 .425 1.925h.525a2.3 2.3 0 0 0 1.225-1.6L2.5 151l.1-.475a3.235 3.235 0 0 1 1.325-.325 7.959 7.959 0 0 0 1.5-.15h.6a30.042 30.042 0 0 1 3.675 0s1.225.075 2.4.15c1.25.075 1.925.075 3.175.075a4.176 4.176 0 0 1 1.075.35l-.075.45-.2 1.4.225.55c.575-.25 1.25-.15 1.7-.55a2.4 2.4 0 0 0 .625-1.4 12.78 12.78 0 0 0 .075-2.4zm.125-7.25a1.708 1.708 0 0 1-.2-1.25 10.644 10.644 0 0 1-.25-1.7 17.045 17.045 0 0 0 .2-2.05 29.936 29.936 0 0 0-.525-3.275 4.348 4.348 0 0 0-1.725-2.95l-.475.25-.35.725.175 2.725-.075 1.35v2.475a3.363 3.363 0 0 0 0 1.225.705.705 0 0 1-.325.75c-.675-.075-1.55-.075-2.225-.15a8.85 8.85 0 0 0-1.25-.05s-.775-.125-1.35-.175c-.025-.675-.45-3.55-.625-4.35a3.709 3.709 0 0 0-1-2.375l-.725.125-.425.675a16.573 16.573 0 0 0-.1 2.2c.075.7.2 2.9.225 3.55l-.25.275c-.5 0-1.025-.1-1.525-.15s-1-.05-1.5-.05A5.154 5.154 0 0 1 3.1 139c-.075-.5-.25-1.075-.325-1.575 0-1.25-.175-3.425-.25-4.15a2.871 2.871 0 0 0-.925-1.925h-.575a3.281 3.281 0 0 0-.6 1.5 14.655 14.655 0 0 1-.225 1.9 22.918 22.918 0 0 1 .1 3.75 6.67 6.67 0 0 0 0 1.225 3.864 3.864 0 0 0-.2 1.2l.075 1.05.35.225 1.25-.075 8.1.475.425-.05 1 .05 3.925.1a7.063 7.063 0 0 0 1.775-.1 4.344 4.344 0 0 0 1.575-.525zM18.7 107.15v-.45a3.853 3.853 0 0 0-2-.525 5.841 5.841 0 0 1-2.175-.175c-.675-.05-1.35-.125-2.1-.2l-.825.075-6.025.075H4.4a1.3 1.3 0 0 1-1-.3 5.323 5.323 0 0 1-.4-1.775c0-.725-.775-2-.775-2.75l-.575-.65-.675.2A2.575 2.575 0 0 0 .3 102.4v5.15c0 1.075.125 2.5.25 3.7a9.735 9.735 0 0 1-.325 3.15l.15.575.675.225a1.644 1.644 0 0 0 1.175-.35 4.086 4.086 0 0 0 1.2-1.05 2.762 2.762 0 0 0 .125-1.625c-.05-.8-.075-2.025-.15-2.375l.175-.4a3.225 3.225 0 0 1 1.325-.3 3.025 3.025 0 0 0 1.5 0l3.425.125a6.6 6.6 0 0 1 1.6-.125 10.209 10.209 0 0 0 1.575-.15l.85.075c.575-.075 1.25-.15 1.85-.225a2.613 2.613 0 0 0 1.575-.65 12.036 12.036 0 0 0 1.425-1zm-.05-21.375l.15-.85-.3-.35-.5-.2a25.5 25.5 0 0 0-6.075-.625 39.96 39.96 0 0 1-4.175-.25c-1.6-.075-3.1-.225-3.95-.3l-1.1-.15a17.66 17.66 0 0 0-1.9.35 3.182 3.182 0 0 0-.675 1.4c0 .6 0 1.4.425 1.65a11.056 11.056 0 0 0 1.825-.05 8.282 8.282 0 0 1 1.6.075h1c.5 0 .925.075 2.525.225l.175 1.05.5 4.05c.075.625 0 1.225.075 2.45l-.075.275a18.623 18.623 0 0 1-2.7.075 5.953 5.953 0 0 0-1.4.175H2.9a2.365 2.365 0 0 1-1-.25H.8a.959.959 0 0 0-.675.7 4.1 4.1 0 0 0 .1 1.1A4.674 4.674 0 0 0 .55 97.65l.175.025a7.7 7.7 0 0 0 1.325-.2c.425-.075.925-.075 1.35-.125H7c1.25.05 2.425.05 3.575.05 1.275.075 3.8.175 4.975.25a5.177 5.177 0 0 0 1.25-.075 10.746 10.746 0 0 1 1.175-.225l.6-.55-.175-.7a4.488 4.488 0 0 0-2.1-1.1 17.688 17.688 0 0 0-3.7-.225c-.775.05-1.4.1-1.6-.1a3.367 3.367 0 0 1-.2-1.5 19.313 19.313 0 0 1-.375-2.65c-.075-.625-.225-1.3-.3-1.825a9.332 9.332 0 0 0-.325-1.625l.125-.375a5.528 5.528 0 0 1 1.875-.075c.825-.05 2.075 0 3-.05a25.839 25.839 0 0 0 2.775-.175 2.261 2.261 0 0 0 1.075-.625zM18.275 66.4a1.466 1.466 0 0 0-.325-1.225h-1.1c-.75.375-1.575.875-2.325 1.325a13.682 13.682 0 0 0-2.175 1.625c-.675.6-1.35 1.225-1.925 1.825l-.45-.35a2.764 2.764 0 0 0-.575-.95c-.25-.225-.425-.575-.675-.775a7.059 7.059 0 0 0-2.1-.975 13.143 13.143 0 0 0-1.675.175 8.33 8.33 0 0 0-1.5.4 3 3 0 0 0-1.325.775 6.516 6.516 0 0 0-.925 1.275c-.25.45-.425.9-.675 1.375a4.732 4.732 0 0 0-.4 1.925v1.75c.1.575 0 1.1.075 1.675a14.727 14.727 0 0 0-.075 1.775l-.05 1.425.25.575.75-.175 9.25.3a18.277 18.277 0 0 0 2.025-.075c.65-.075 1.725-.1 2.725-.15a7.65 7.65 0 0 0 2-.375c.325-.15.975-.1 1.1-.4a1.128 1.128 0 0 0 .65-.975l-.175-.6a4.129 4.129 0 0 0-1.4-.375c-.5-.075-.975.025-1.6-.075a10.452 10.452 0 0 0-2.9-.25 3.769 3.769 0 0 1-2-.325 13.1 13.1 0 0 1 .125-1.75l-.05-1.225A12.976 12.976 0 0 1 13.1 70.75c.925-.7 1.825-1.375 2.75-2a9.406 9.406 0 0 0 2.425-2.35zM7.3 71.6c.175.875.325 1.325.4 1.8a6.656 6.656 0 0 1 .4 1.375c.1.475.175.9.25 1.45a.737.737 0 0 1-.25.825 10.426 10.426 0 0 1-1.8-.1c-.55-.075-1.175-.125-1.725-.225A5.565 5.565 0 0 1 3 76.2l-.575-1.375a11.793 11.793 0 0 0 .1-1.925 6.32 6.32 0 0 1 .225-2.225 4.058 4.058 0 0 1 .85-.725c.4-.125.725-.275 1.1-.425h.55a3.93 3.93 0 0 1 1.125.875 7.388 7.388 0 0 1 .925 1.2zm11.525-10.175a1.708 1.708 0 0 1-.2-1.25 10.644 10.644 0 0 1-.25-1.7 17.045 17.045 0 0 0 .2-2.05 29.936 29.936 0 0 0-.525-3.275 4.348 4.348 0 0 0-1.725-2.95l-.475.25-.35.725.175 2.725-.075 1.35v2.475a3.363 3.363 0 0 0 0 1.225.705.705 0 0 1-.325.75c-.675-.075-1.55-.075-2.225-.15a8.85 8.85 0 0 0-1.25-.05s-.775-.125-1.35-.175c-.025-.675-.45-3.55-.625-4.35a3.709 3.709 0 0 0-1-2.375l-.725.125-.425.675a16.573 16.573 0 0 0-.1 2.2c.075.7.2 2.9.225 3.55l-.25.275c-.5 0-1.025-.1-1.525-.15s-1-.05-1.5-.05A5.154 5.154 0 0 1 3.1 59c-.075-.5-.25-1.075-.325-1.575 0-1.25-.175-3.425-.25-4.15A2.871 2.871 0 0 0 1.6 51.35h-.575a3.281 3.281 0 0 0-.6 1.5 14.655 14.655 0 0 1-.225 1.9 22.918 22.918 0 0 1 .1 3.75 6.67 6.67 0 0 0 0 1.225 3.864 3.864 0 0 0-.2 1.2l.075 1.05.35.225 1.25-.075 8.1.475.425-.05 1 .05 3.925.1A7.063 7.063 0 0 0 17 62.6a4.344 4.344 0 0 0 1.575-.525zm0-13.7a2.031 2.031 0 0 0-.75-1.65c-.675-.25-1.35-.55-2-.775a16.842 16.842 0 0 1-1.85-.75c-.575-.325-1.25-.575-1.85-.9a3.079 3.079 0 0 0-.175-1.85 10.526 10.526 0 0 0-.075-1.975 6.694 6.694 0 0 0-.575-1.775l.25-.6s.7-.65 1-.85c.75-.225 1.425-.5 2.6-.825.675-.25 1.325-.55 2.075-.825l1.275-1-.175-.825-.95-.925c-.925.175-1.75.4-2.6.625a10.569 10.569 0 0 0-2.7 1.075 5.5 5.5 0 0 1-2.275.7 9.794 9.794 0 0 1-2.925 1.6c-1 .375-2 .825-3 1.2a28.363 28.363 0 0 1-3.1 1.15 1.637 1.637 0 0 0-.925.9 5.577 5.577 0 0 0 .45 1.95 8.141 8.141 0 0 0 3.275 1.725c1.25.3 2.275.925 3.425 1.25a15.909 15.909 0 0 1 3.425 1.275 5.58 5.58 0 0 1 1.95.775 12.187 12.187 0 0 0 2.35.95c.85.275 1.675.6 2.425.825a1.722 1.722 0 0 0 1.425-.475zm-9.45-8.975c.075.3.175.75.25 1.125a5.061 5.061 0 0 1 0 1.375.87.87 0 0 1-.375.875 4 4 0 0 1-1.425-.475c-.525-.05-.9-.275-1.425-.35-.5-.1-1.175-.3-1.6-.425l.175-.05A11.2 11.2 0 0 1 6.15 40c.425-.225.75-.375 1.175-.6.425-.2.925-.35 1.725-.7zm9.55-10.3a21.271 21.271 0 0 1-.65-2.875 16.047 16.047 0 0 0-.475-2.7c-.25-.875-.225-1.75-.45-2.875a5.959 5.959 0 0 0-1.5-3.1 8.118 8.118 0 0 0-1.35-1.1c-.4-.25-.925-.475-1.425-.75-.9.1-1.75.2-2.675.325a20.53 20.53 0 0 1-2.575.4A5.268 5.268 0 0 0 5.55 16.9c-.75.725-1.4 1.475-2.175 2.225a18.27 18.27 0 0 0-1.75 2.45A6.421 6.421 0 0 0 .8 24.45l-.225 1.7A21.428 21.428 0 0 0 .2 29.3a.509.509 0 0 0 .25.65l1-.275 11.625.2 1.275-.075 1.65.175c1.925.275 2.025-.2 2.275-.55a1.963 1.963 0 0 0 .65-.975zM12.8 18.725a11.841 11.841 0 0 1 1.375 2.55c.275 1 .35 1.875.6 2.725.25 1 .825 1.95.725 2.85l-.35.25-2.3-.05-1.775.1-4.875-.175-.775.175-1.675-.25a1.386 1.386 0 0 1-.6-.925 3.921 3.921 0 0 0-.1-1.075 6.4 6.4 0 0 1 .45-1.6c.25-.525.5-1.025.75-1.525.325-.425.675-.9 1.075-1.35.425-.425.875-.775 1.3-1.2a5.305 5.305 0 0 1 1.4-.725c.6-.125 1.125-.3 1.625-.35l1.925-.05zm6-11.775A4.917 4.917 0 0 1 18.525 5c0-.65-.175-1.225-.225-1.925a3.07 3.07 0 0 0-.875-1.8A2.277 2.277 0 0 0 16.075.4a7.053 7.053 0 0 0-1.7-.4 3.939 3.939 0 0 0-1.8.6 7.751 7.751 0 0 0-1.625.95A6.181 6.181 0 0 0 9.125 3.9a17.02 17.02 0 0 0-.95 2.675A8.216 8.216 0 0 1 7.05 9.1a2.172 2.172 0 0 1-1.075.775l-2-.35A4.615 4.615 0 0 1 3.2 8.1c-.075-.475-.25-1.05-.325-1.5a3.074 3.074 0 0 1 0-1.35c.075-.425.25-.825.325-1.25a1.853 1.853 0 0 1 1.025-1.125V2.35l-.575-.575a4.8 4.8 0 0 0-1.7.5 5.592 5.592 0 0 0-1.025 1.3 4.685 4.685 0 0 0-.5 1.475C.35 5.5.175 6 .075 6.5a5.923 5.923 0 0 0 .1 1.35A4.727 4.727 0 0 0 .6 9.075a7.469 7.469 0 0 0 .7 1.15 8.363 8.363 0 0 0 1.325.7 12.242 12.242 0 0 0 1.525.525 4.624 4.624 0 0 0 2-.2 8.647 8.647 0 0 0 2.2-.725A13.8 13.8 0 0 0 9.55 9.3a2.268 2.268 0 0 0 .6-1.5c.075-.5.15-1.075.25-1.525.275-.525.3-.95.5-1.375a4.075 4.075 0 0 1 1.3-1.2l.875-.45.5.15c.975.3 1.325.7 1.5 1.225a13.294 13.294 0 0 0 .625 1.55 4.9 4.9 0 0 1 .45 1.8L15.7 9.55a5.592 5.592 0 0 1-.975 1.125 10.136 10.136 0 0 1-1.625.85 3.074 3.074 0 0 0-1.2 1.025l.1.575a5 5 0 0 0 1.825-.3 12.979 12.979 0 0 0 1.75-.55c.575-.2 1.375-.225 1.8-.65a2.464 2.464 0 0 0 .75-1.45c.1-.525.3-1.05.4-1.575a9.861 9.861 0 0 0 .275-1.65z" fill="#d66841"/></svg>